name Walk1.mot
datacolumns 19
datarows 17
range 1.26000000 1.27600000
endheader

                time	   L_ground_force_vx	   L_ground_force_vy	   L_ground_force_vz	   L_ground_force_px	   L_ground_force_py	   L_ground_force_pz	   R_ground_force_vx	   R_ground_force_vy	   R_ground_force_vz	   R_ground_force_px	   R_ground_force_py	   R_ground_force_pz	   L_ground_torque_x	   L_ground_torque_y	   L_ground_torque_z	   R_ground_torque_x	   R_ground_torque_y	   R_ground_torque_z	
          1.26000000	          0.00000000	          0.00000000	          0.00000000	          0.00000000	          0.00000000	          0.00000000	          0.00000000	          0.00000000	          0.00000000	          0.00000000	          0.00000000	          0.00000000	          0.00000000	          0.00000000	          0.00000000	          0.00000000	          0.00000000	          0.00000000	
          1.26100000	          0.00000000	          0.00000000	          0.00000000	          0.00000000	          0.00000000	          0.00000000	          0.00000000	          0.00000000	          0.00000000	          0.00000000	          0.00000000	          0.00000000	          0.00000000	          0.00000000	          0.00000000	          0.00000000	          0.00000000	          0.00000000	
          1.26200000	          0.00000000	          0.00000000	          0.00000000	          0.00000000	          0.00000000	          0.00000000	          0.00000000	          0.00000000	          0.00000000	          0.00000000	          0.00000000	          0.00000000	          0.00000000	          0.00000000	          0.00000000	          0.00000000	          0.00000000	          0.00000000	
          1.26300000	          0.00000000	          0.00000000	          0.00000000	          0.00000000	          0.00000000	          0.00000000	          0.00000000	          0.00000000	          0.00000000	          0.00000000	          0.00000000	          0.00000000	          0.00000000	          0.00000000	          0.00000000	          0.00000000	          0.00000000	          0.00000000	
          1.26400000	          0.00000000	          0.00000000	          0.00000000	          0.00000000	          0.00000000	          0.00000000	          0.00000000	          0.00000000	          0.00000000	          0.00000000	          0.00000000	          0.00000000	          0.00000000	          0.00000000	          0.00000000	          0.00000000	          0.00000000	          0.00000000	
          1.26500000	          0.00000000	          0.00000000	          0.00000000	          0.00000000	          0.00000000	          0.00000000	          0.00000000	          0.00000000	          0.00000000	          0.00000000	          0.00000000	          0.00000000	          0.00000000	          0.00000000	          0.00000000	          0.00000000	          0.00000000	          0.00000000	
          1.26600000	          0.00000000	          0.00000000	          0.00000000	          0.00000000	          0.00000000	          0.00000000	          0.00000000	          0.00000000	          0.00000000	          0.00000000	          0.00000000	          0.00000000	          0.00000000	          0.00000000	          0.00000000	          0.00000000	          0.00000000	          0.00000000	
          1.26700000	          0.00000000	          0.00000000	          0.00000000	          0.00000000	          0.00000000	          0.00000000	          0.00000000	          0.00000000	          0.00000000	          0.00000000	          0.00000000	          0.00000000	          0.00000000	          0.00000000	          0.00000000	          0.00000000	          0.00000000	          0.00000000	
          1.26800000	         -7.20415706	         13.32248548	         -5.59077177	         -0.44143492	          0.00000000	         -0.03414261	          0.00000000	          0.00000000	          0.00000000	          0.00000000	          0.00000000	          0.00000000	          0.00000000	         -0.09508754	          0.00000000	          0.00000000	          0.00000000	          0.00000000	
          1.26900000	        -11.10153578	         23.33555895	         -7.93958933	         -0.43027343	          0.00000000	         -0.02753474	          0.00000000	          0.00000000	          0.00000000	          0.00000000	          0.00000000	          0.00000000	          0.00000000	         -0.15596648	          0.00000000	          0.00000000	          0.00000000	          0.00000000	
          1.27000000	        -15.36243620	         36.77513020	        -10.01992400	         -0.42181588	          0.00000000	         -0.02378017	          0.00000000	          0.00000000	          0.00000000	          0.00000000	          0.00000000	          0.00000000	          0.00000000	         -0.22237048	          0.00000000	          0.00000000	          0.00000000	          0.00000000	
          1.27100000	        -19.82463023	         54.75656184	        -11.58649981	         -0.41551669	          0.00000000	         -0.02165878	          0.00000000	          0.00000000	          0.00000000	          0.00000000	          0.00000000	          0.00000000	          0.00000000	         -0.27586056	          0.00000000	          0.00000000	          0.00000000	          0.00000000	
          1.27200000	        -24.31114546	         78.69410156	        -12.46008381	         -0.41101707	          0.00000000	         -0.02018754	          0.00000000	          0.00000000	          0.00000000	          0.00000000	          0.00000000	          0.00000000	          0.00000000	         -0.29396941	          0.00000000	          0.00000000	          0.00000000	          0.00000000	
          1.27300000	        -28.51444821	        109.77094072	        -12.49619569	         -0.40773521	          0.00000000	         -0.01881075	          0.00000000	          0.00000000	          0.00000000	          0.00000000	          0.00000000	          0.00000000	          0.00000000	         -0.26713038	          0.00000000	          0.00000000	          0.00000000	          0.00000000	
          1.27400000	        -31.99121504	        148.33607951	        -11.62542891	         -0.40520155	          0.00000000	         -0.01741211	          0.00000000	          0.00000000	          0.00000000	          0.00000000	          0.00000000	          0.00000000	          0.00000000	         -0.20148589	          0.00000000	          0.00000000	          0.00000000	          0.00000000	
          1.27500000	        -34.27660267	        193.43242990	         -9.93124434	         -0.40321385	          0.00000000	         -0.01606901	          0.00000000	          0.00000000	          0.00000000	          0.00000000	          0.00000000	          0.00000000	          0.00000000	         -0.11031120	          0.00000000	          0.00000000	          0.00000000	          0.00000000	
          1.27600000	        -35.06190761	        242.69591631	         -7.72262571	         -0.40168787	          0.00000000	         -0.01485250	          0.00000000	          0.00000000	          0.00000000	          0.00000000	          0.00000000	          0.00000000	          0.00000000	         -0.00697520	          0.00000000	          0.00000000	          0.00000000	          0.00000000	
